<svg xmlns="http://www.w3.org/2000/svg" width="951" height="1013" viewBox="0 0 951 1013">
  <defs>
    <style>
      .cls-1 {
        fill: #16171d;
      }

      .cls-1, .cls-2 {
        fill-rule: evenodd;
      }

      .cls-2 {
        fill: #b481c5;
      }
    </style>
  </defs>
    <path id="1" class="cls-1" d="M784.812,368.525A368.662,368.662,0,0,1,741.594,542.3q-3.783,8.482-7.95,17.054c-22.844,47.671-55.229,97.6-92.227,148.622C566.724,809.524,480.657,913.768,419.25,1012.02h0c-61.407-98.252-147.474-202.5-222.166-304.045-37-51.026-69.384-100.951-92.228-148.622q-4.179-8.576-7.95-17.054A368.666,368.666,0,0,1,53.688,368.525C53.688,165.236,217.288.4,419.25,0h0C621.212,0.4,784.812,165.236,784.812,368.525ZM419.25,42.595c-180.886.4-327.4,148.492-327.4,331.122a332.031,332.031,0,0,0,38.716,156.136q3.39,7.622,7.121,15.323c20.465,42.832,49.476,87.69,82.62,133.536,66.88,91.2,143.94,184.819,198.945,273.063C474.255,863.531,551.315,769.913,618.2,678.712c33.144-45.846,62.155-90.7,82.62-133.536q3.744-7.706,7.121-15.323a332.031,332.031,0,0,0,38.716-156.136C746.652,191.087,600.136,43,419.25,42.595Z"/>
    <path id="2" class="cls-1" d="M592.154,683.32C337.393,831.994,75.58,859.691,14.7,753.1-14.5,701.974,2.558,634.3,58.665,553.264c12.351-20.008,23.193-22.207,20.689-17.735-1.923,3.434-14.292,26.42-28.078,60.594-31.819,83.066-32.6,108.432-8.867,146.314,56.1,89.552,335.752,17.161,537.922-101.976C773.574,526.584,951.794,331.01,914.316,238.469c-33.139-81.828-123.3-83.851-165.515-87.2-4.6-.365-22.077-1.6-13.387-3.549,23.517-5.259,43.031-4.46,54.06-4.363,89.58,0.79,129.192,38.748,147.794,71.348C998.1,321.323,846.914,534.647,592.154,683.32Z"/>
    <path id="3" class="cls-2" d="M701.511,514.232A67.113,67.113,0,1,1,634.4,581.344,67.11,67.11,0,0,1,701.511,514.232Zm0,0A67.113,67.113,0,1,1,634.4,581.344,67.11,67.11,0,0,1,701.511,514.232Zm0,0A67.113,67.113,0,1,1,634.4,581.344,67.11,67.11,0,0,1,701.511,514.232Z"/>
    <path id="4" class="cls-2" d="M419.25,379.477c-36.536-6.224-67.108-30.047-67.108-67.113a67.11,67.11,0,0,1,67.108-67.112c37.063,0,62.387,30.349,67.108,67.112,2.724,21.211,12.54,60.219-2.084,72.418C473.286,393.947,437.872,382.649,419.25,379.477Z"/>
</svg>
